<svg xmlns="http://www.w3.org/2000/svg" viewBox="0 0 960 680" role="img" aria-labelledby="title desc">
  <title id="title">Appliance repair technician in a clean kitchen</title>
  <desc id="desc">A technician repairs a washer beside a refrigerator with tools and service indicators.</desc>
  <defs>
    <linearGradient id="wall" x1="0" x2="1" y1="0" y2="1">
      <stop offset="0" stop-color="#f8f5ee"/>
      <stop offset="1" stop-color="#e8f0ef"/>
    </linearGradient>
    <linearGradient id="steel" x1="0" x2="1">
      <stop offset="0" stop-color="#d9e2e5"/>
      <stop offset="1" stop-color="#f7faf9"/>
    </linearGradient>
    <filter id="shadow" x="-20%" y="-20%" width="140%" height="140%">
      <feDropShadow dx="0" dy="18" stdDeviation="18" flood-color="#14304b" flood-opacity=".18"/>
    </filter>
  </defs>
  <rect width="960" height="680" fill="url(#wall)"/>
  <rect x="0" y="514" width="960" height="166" fill="#d9c9b4"/>
  <path d="M42 548h876M89 590h820M137 632h710" stroke="#b89d82" stroke-width="3" opacity=".55"/>
  <g filter="url(#shadow)">
    <rect x="86" y="116" width="188" height="426" rx="18" fill="url(#steel)"/>
    <rect x="106" y="142" width="148" height="170" rx="12" fill="#fdfefe"/>
    <rect x="106" y="326" width="148" height="184" rx="12" fill="#fdfefe"/>
    <path d="M240 184v88M240 368v96" stroke="#86979d" stroke-width="8" stroke-linecap="round"/>
  </g>
  <g filter="url(#shadow)">
    <rect x="354" y="276" width="244" height="248" rx="28" fill="#fdfefe"/>
    <circle cx="476" cy="401" r="74" fill="#17324d"/>
    <circle cx="476" cy="401" r="54" fill="#9fc7cf"/>
    <path d="M425 395c26 28 73 28 102 0" fill="none" stroke="#fdfefe" stroke-width="8" stroke-linecap="round"/>
    <rect x="404" y="310" width="48" height="14" rx="7" fill="#a9b7ba"/>
    <circle cx="548" cy="319" r="12" fill="#5b8f74"/>
  </g>
  <g>
    <path d="M654 252c28-12 64-2 82 23 24 33 14 78-19 100l-13-20c20-14 27-41 12-61-12-17-36-24-55-16l-7-26Z" fill="#17324d"/>
    <circle cx="670" cy="210" r="40" fill="#d69565"/>
    <path d="M638 214c9-42 62-52 83-17-25 0-48 8-68 24l-15-7Z" fill="#25364b"/>
    <path d="M634 274c34-28 88-24 116 8l-26 110-103-14 13-104Z" fill="#2f7798"/>
    <path d="M624 382h118l28 147h-45l-25-100-28 100h-46l20-103-22-44Z" fill="#17324d"/>
    <path d="M636 307c-36 18-62 44-77 79l24 11c15-29 35-49 62-62l-9-28Z" fill="#d69565"/>
    <path d="m552 388 46 18" stroke="#e46b38" stroke-width="12" stroke-linecap="round"/>
    <path d="M608 529h72M707 529h77" stroke="#25364b" stroke-width="16" stroke-linecap="round"/>
  </g>
  <g filter="url(#shadow)">
    <rect x="690" y="438" width="154" height="68" rx="12" fill="#e46b38"/>
    <rect x="728" y="414" width="78" height="32" rx="10" fill="#17324d"/>
    <path d="M717 474h102" stroke="#f7f3ea" stroke-width="8" stroke-linecap="round"/>
  </g>
  <g>
    <rect x="696" y="112" width="172" height="104" rx="18" fill="#17324d"/>
    <text x="782" y="153" fill="#f7f3ea" font-family="Arial, sans-serif" font-size="28" font-weight="700" text-anchor="middle">8 AM</text>
    <text x="782" y="185" fill="#f7f3ea" font-family="Arial, sans-serif" font-size="28" font-weight="700" text-anchor="middle">8 PM</text>
    <circle cx="706" cy="123" r="20" fill="#5b8f74"/>
    <path d="m696 123 8 8 17-19" fill="none" stroke="#fff" stroke-width="5" stroke-linecap="round" stroke-linejoin="round"/>
  </g>
</svg>
